<?xml version="1.0" standalone="no"?>
<!DOCTYPE svg PUBLIC "-//W3C//DTD SVG 20010904//EN"
 "http://www.w3.org/TR/2001/REC-SVG-20010904/DTD/svg10.dtd">
<svg version="1.0" xmlns="http://www.w3.org/2000/svg"
 width="500.000000pt" height="500.000000pt" viewBox="0 0 500.000000 500.000000"
 preserveAspectRatio="xMidYMid meet">
<metadata>
Created by potrace 1.11, written by Peter Selinger 2001-2013
</metadata>
<g transform="translate(0.000000,500.000000) scale(0.100000,-0.100000)"
fill="#000000" stroke="none">
<path d="M3930 4020 l-61 -91 -47 27 c-26 15 -67 40 -91 56 -25 15 -48 28 -51
28 -4 0 -15 -48 -25 -106 l-18 -107 -56 6 c-31 4 -82 9 -113 13 l-57 7 25 -94
c13 -52 24 -101 24 -110 0 -12 -26 -23 -97 -44 -54 -15 -101 -29 -105 -32 -7
-3 58 -92 119 -164 11 -13 2 -24 -72 -85 -47 -38 -85 -71 -85 -74 0 -3 43 -27
95 -55 52 -27 95 -53 95 -58 0 -4 -21 -48 -46 -98 -25 -50 -43 -93 -40 -96 2
-3 51 -9 108 -14 57 -4 105 -8 107 -9 2 0 2 -49 -1 -110 -2 -60 -1 -110 2
-110 4 0 50 16 101 35 52 19 97 35 100 35 4 0 23 -42 44 -92 20 -51 40 -96 44
-100 4 -4 43 26 86 66 l80 74 77 -76 c47 -46 81 -72 86 -67 5 6 24 48 42 95
18 47 36 89 40 93 4 4 51 -8 105 -28 53 -19 99 -35 101 -35 2 0 4 49 4 109 0
125 -5 120 110 122 117 2 115 -1 64 108 -24 52 -44 97 -44 100 0 4 43 29 95
56 52 28 95 52 94 55 0 3 -38 36 -85 74 -54 45 -81 73 -76 80 5 6 34 43 65 83
32 40 57 76 57 81 0 5 -36 19 -81 31 -45 12 -91 26 -104 31 l-23 9 25 101 c14
55 23 103 20 107 -3 3 -51 0 -107 -7 -55 -7 -102 -11 -105 -8 -3 3 -13 48 -21
99 -9 52 -20 98 -24 102 -4 5 -38 -11 -76 -36 -121 -77 -105 -78 -170 16 -31
45 -61 86 -65 91 -4 4 -35 -33 -69 -84z m109 -62 c73 -110 57 -106 151 -48 45
28 83 50 85 48 1 -2 10 -43 19 -92 9 -49 18 -91 21 -94 2 -2 38 1 80 7 125 18
117 26 89 -81 -16 -64 -20 -94 -12 -99 6 -4 48 -17 94 -29 46 -13 84 -25 84
-27 0 -2 -25 -35 -55 -73 -30 -37 -56 -72 -57 -77 -2 -5 30 -37 70 -72 l74
-63 -84 -45 c-45 -25 -84 -46 -86 -48 -1 -1 16 -41 38 -90 22 -48 40 -89 40
-91 0 -2 -15 -4 -34 -4 -18 0 -61 -3 -95 -6 l-61 -7 0 -99 c0 -91 -2 -100 -17
-93 -83 33 -157 56 -166 52 -7 -3 -25 -39 -41 -81 -16 -42 -33 -79 -38 -83 -6
-3 -40 24 -77 60 l-66 65 -69 -64 c-37 -35 -71 -64 -75 -64 -3 0 -21 38 -39
85 -19 47 -39 85 -46 85 -7 0 -49 -13 -94 -30 l-82 -30 0 99 0 98 -61 7 c-34
3 -77 6 -95 6 -19 0 -34 5 -34 10 0 6 18 47 41 91 22 45 39 82 37 83 -2 2 -40
23 -85 47 -46 24 -83 46 -82 49 0 3 32 31 70 63 38 32 69 62 69 66 0 4 -25 40
-56 80 -31 40 -55 74 -53 75 3 3 62 21 170 52 15 4 15 13 -7 96 -12 51 -21 94
-19 97 3 2 45 -2 95 -9 50 -6 93 -10 95 -8 2 2 10 43 19 92 9 49 17 91 20 93
2 2 41 -19 86 -47 45 -28 83 -50 84 -48 2 2 26 38 55 81 28 42 53 77 55 77 2
0 22 -28 45 -62z"/>
<path d="M2266 3990 c-15 -5 -36 -16 -45 -24 -15 -13 -24 -14 -50 -5 -44 15
-113 6 -149 -20 -17 -12 -39 -39 -48 -61 -15 -34 -23 -40 -47 -40 -36 0 -96
-33 -121 -67 -10 -14 -21 -45 -24 -69 -3 -29 -10 -45 -21 -49 -10 -3 -33 -21
-52 -41 -33 -34 -34 -38 -34 -112 -1 -61 -5 -84 -23 -112 -33 -53 -30 -126 8
-178 25 -35 28 -45 20 -73 -17 -59 28 -157 79 -174 10 -3 21 -19 24 -34 8 -39
62 -99 97 -108 16 -5 39 -23 52 -42 40 -59 71 -76 146 -77 42 0 78 -7 97 -17
37 -21 107 -22 143 -3 23 12 31 12 52 0 59 -32 161 -8 201 47 11 16 25 26 31
23 5 -3 30 -1 54 6 48 14 99 63 110 104 3 14 16 27 30 30 42 11 91 63 103 110
6 25 8 52 5 60 -4 10 6 30 24 51 36 40 49 93 35 140 -8 23 -7 46 0 75 9 33 8
50 -4 85 -13 35 -14 53 -6 83 17 64 -17 140 -76 168 -26 12 -36 25 -45 58 -19
74 -79 126 -144 126 -15 0 -29 10 -40 29 -9 16 -28 37 -43 47 -32 21 -115 30
-142 15 -17 -8 -24 -7 -34 6 -18 21 -88 53 -114 52 -11 0 -33 -5 -49 -9z m126
-83 c42 -32 45 -33 78 -19 66 27 132 -1 148 -62 8 -28 12 -31 44 -28 74 7 136
-57 122 -125 -5 -27 -3 -29 40 -41 72 -19 106 -90 72 -151 -12 -22 -11 -30 6
-63 14 -27 18 -47 13 -66 -7 -27 -8 -54 -3 -138 3 -42 0 -49 -34 -79 -35 -29
-37 -34 -28 -65 7 -23 5 -41 -4 -64 -17 -41 -39 -58 -84 -65 -33 -6 -37 -10
-43 -44 -11 -66 -76 -109 -134 -87 -15 6 -28 9 -29 8 -16 -40 -43 -78 -62 -87
-40 -18 -86 -13 -119 13 l-30 24 -28 -24 c-39 -33 -99 -33 -143 1 -31 23 -36
24 -77 13 -39 -10 -48 -9 -78 8 -19 11 -43 36 -54 56 -14 26 -30 39 -57 47
-44 14 -78 53 -78 92 0 23 -7 31 -34 43 -18 8 -41 24 -50 37 -20 29 -21 98 -1
126 14 20 13 23 -8 40 -38 30 -57 65 -57 104 0 40 28 84 61 94 20 7 20 7 -1
39 -42 69 -10 156 63 170 l34 6 -5 50 c-4 46 -2 52 32 86 35 35 39 36 85 31
47 -6 49 -5 55 21 13 55 30 83 57 97 38 20 78 19 115 -4 l32 -19 28 29 c40 42
97 41 156 -4z"/>
<path d="M655 3944 c-145 -37 -267 -111 -351 -213 -99 -120 -147 -251 -147
-401 0 -270 170 -506 428 -596 70 -25 94 -28 195 -28 96 1 128 5 195 27 196
65 359 239 411 438 20 77 22 222 5 299 -35 151 -142 299 -279 388 -102 66
-167 84 -312 88 -69 1 -134 1 -145 -2z m268 -59 c358 -93 537 -500 365 -829
-47 -89 -156 -194 -248 -240 -128 -62 -245 -78 -375 -51 -209 44 -386 210
-440 415 -20 74 -19 232 1 301 57 192 218 353 405 403 71 19 220 20 292 1z"/>
<path d="M1553 2359 c-46 -13 -79 -58 -87 -118 -11 -85 4 -119 92 -202 42 -40
82 -82 89 -93 20 -34 16 -84 -8 -96 -27 -15 -45 0 -53 46 l-7 35 -57 -3 -57
-3 3 -55 c5 -100 48 -135 162 -135 86 0 122 17 139 67 16 44 14 154 -3 186 -8
15 -51 62 -95 104 -70 67 -81 82 -81 112 0 67 56 72 66 5 l7 -39 60 0 60 0 -6
62 c-6 72 -29 108 -78 125 -40 14 -101 15 -146 2z"/>
<path d="M235 2349 c-3 -8 -4 -147 -3 -309 l3 -295 110 0 c71 0 122 5 143 14
58 24 62 45 62 290 0 121 -4 231 -10 245 -16 42 -61 57 -186 63 -92 5 -115 3
-119 -8z m187 -122 c4 -7 8 -87 8 -179 0 -141 -3 -169 -16 -183 -9 -9 -26 -15
-38 -13 -20 3 -21 8 -24 188 -1 101 0 191 3 198 6 16 55 8 67 -11z"/>
<path d="M689 2358 c-12 -54 -104 -605 -102 -610 2 -5 30 -8 62 -8 57 0 59 1
65 31 3 17 6 42 6 55 0 22 4 24 50 24 46 0 50 -2 50 -24 0 -13 3 -38 6 -55 6
-30 8 -31 65 -31 32 0 60 3 62 8 2 5 -93 577 -102 610 -1 1 -37 2 -81 2 -44 0
-80 -1 -81 -2z m95 -225 c3 -38 9 -92 12 -120 l7 -53 -32 0 c-18 0 -31 5 -31
13 0 42 24 227 30 227 4 0 10 -30 14 -67z"/>
<path d="M1000 2050 l0 -310 55 0 55 0 1 228 1 227 57 -225 57 -225 82 -3 82
-3 0 311 0 311 -52 -3 -53 -3 -3 -220 -4 -220 -56 220 -57 220 -82 3 -83 3 0
-311z"/>
<path d="M1857 2353 c-4 -3 -7 -143 -7 -310 l0 -303 60 0 60 0 1 148 1 147 50
-147 50 -148 64 0 c35 0 64 4 64 9 0 5 -25 73 -55 151 -30 78 -55 150 -55 160
0 10 23 77 50 150 28 73 50 136 50 142 0 5 -28 8 -62 6 l-61 -3 -48 -140 -47
-140 -1 143 -1 142 -53 0 c-30 0 -57 -3 -60 -7z"/>
<path d="M4253 1714 c-17 -9 -39 -31 -47 -49 -48 -100 77 -192 163 -119 59 50
46 140 -24 170 -43 18 -52 17 -92 -2z m79 -61 c25 -23 23 -50 -7 -69 -23 -15
-27 -15 -50 0 -29 19 -32 42 -8 68 20 22 41 23 65 1z"/>
<path d="M945 1507 c-50 -23 -58 -54 -63 -249 -6 -236 1 -303 38 -340 24 -24
37 -28 82 -28 45 0 59 4 78 25 24 25 24 25 32 5 6 -16 16 -20 48 -20 l40 0 0
185 0 185 -80 0 -80 0 0 -55 c0 -49 2 -55 20 -55 19 0 21 -5 18 -77 l-3 -78
-30 0 -30 0 0 200 0 200 30 0 c27 0 30 -4 33 -32 l3 -33 60 0 59 0 0 55 c0 46
-4 60 -29 87 -28 32 -33 33 -113 36 -54 1 -94 -3 -113 -11z"/>
<path d="M2153 1504 c-47 -23 -66 -72 -61 -157 l4 -70 92 -88 c90 -86 92 -89
92 -134 0 -33 -4 -47 -16 -52 -27 -10 -49 11 -52 51 l-3 36 -60 0 -59 0 0 -51
c0 -105 48 -149 160 -149 109 0 146 32 157 135 9 89 -7 123 -101 212 -85 80
-109 121 -89 152 6 9 21 16 34 16 21 0 24 -5 27 -37 l3 -38 60 0 59 0 0 50 c0
62 -21 105 -60 125 -38 20 -145 19 -187 -1z"/>
<path d="M200 1455 l0 -55 45 0 45 0 0 -250 0 -250 60 0 60 0 2 248 3 247 43
3 42 3 0 55 0 54 -150 0 -150 0 0 -55z"/>
<path d="M550 1205 l0 -305 130 0 130 0 0 55 0 55 -70 0 -70 0 0 75 0 74 68 3
67 3 0 55 0 55 -67 3 -68 3 0 59 0 60 70 0 70 0 0 55 0 55 -130 0 -130 0 0
-305z"/>
<path d="M1280 1205 l0 -305 55 0 55 0 1 233 1 232 52 -205 c29 -113 56 -217
59 -232 7 -28 8 -28 92 -28 l85 0 0 305 0 305 -55 0 -55 0 -1 -232 -1 -233
-52 205 c-29 113 -56 217 -59 233 -7 27 -8 27 -92 27 l-85 0 0 -305z"/>
<path d="M1760 1205 l0 -305 130 0 130 0 0 55 0 55 -70 0 -70 0 0 75 0 74 68
3 67 3 0 55 0 55 -67 3 -68 3 0 59 0 60 70 0 70 0 0 55 0 55 -130 0 -130 0 0
-305z"/>
<path d="M2480 1205 l0 -305 125 0 125 0 0 55 0 55 -65 0 -65 0 0 75 0 75 65
0 66 0 -3 58 -3 57 -62 3 -63 3 0 59 0 60 65 0 65 0 0 55 0 55 -125 0 -125 0
0 -305z"/>
<path d="M2820 1206 l0 -306 55 0 55 0 0 130 0 130 29 0 c16 0 33 -6 39 -13 6
-7 13 -64 14 -128 l3 -114 68 -3 c65 -3 68 -2 58 17 -6 11 -11 71 -11 133 0
99 -3 117 -19 135 -11 12 -26 23 -33 25 -9 3 -3 13 16 30 28 24 29 28 29 112
0 85 -1 89 -32 119 -31 32 -32 32 -151 35 l-120 4 0 -306z m175 129 l0 -60
-32 -3 -33 -3 0 66 0 66 33 -3 32 -3 0 -60z"/>
<path d="M3210 1205 l0 -305 65 0 65 0 0 305 0 305 -65 0 -65 0 0 -305z"/>
<path d="M3420 1205 l0 -305 130 0 130 0 0 55 0 54 -67 3 -68 3 -3 73 -3 72
66 0 65 0 0 60 0 60 -65 0 -65 0 0 60 0 60 70 0 70 0 0 55 0 55 -130 0 -130 0
0 -305z"/>
<path d="M3760 1205 l0 -305 60 0 60 0 0 130 0 130 29 0 c16 0 33 -6 39 -13 6
-7 13 -64 14 -128 l3 -114 64 -3 c55 -3 63 -1 57 13 -3 9 -6 69 -6 132 l0 116
-36 33 c-22 21 -30 34 -20 34 31 0 46 41 46 125 0 132 -29 155 -200 155 l-110
0 0 -305z m188 136 c3 -58 -5 -71 -45 -71 -22 0 -23 4 -23 66 l0 65 33 -3 c31
-3 32 -4 35 -57z"/>
<path d="M4530 1205 l0 -307 123 3 c194 6 197 11 197 304 0 293 -3 298 -197
304 l-123 3 0 -307z m185 0 l0 -190 -32 -3 -33 -3 0 196 0 196 33 -3 32 -3 0
-190z"/>
<path d="M4219 1488 c0 -2 -24 -133 -53 -293 l-52 -290 59 -3 c33 -2 62 -1 64
2 3 3 8 25 10 51 l6 45 47 0 47 0 7 -50 7 -50 65 0 c62 0 64 1 59 23 -3 12
-27 144 -53 292 l-48 270 -82 3 c-45 2 -82 2 -83 0z m110 -350 c1 -25 -3 -28
-29 -28 -21 0 -30 5 -30 17 0 31 22 198 28 213 5 14 29 -141 31 -202z"/>
</g>
</svg>
